<?xml version="1.0" encoding="UTF-8"?>
<!DOCTYPE svg PUBLIC "-//W3C//DTD SVG 1.1//EN" "http://www.w3.org/Graphics/SVG/1.1/DTD/svg11.dtd">
<svg xmlns="http://www.w3.org/2000/svg" version="1.1" width="500px" height="96px" style="shape-rendering:geometricPrecision; text-rendering:geometricPrecision; image-rendering:optimizeQuality; fill-rule:evenodd; clip-rule:evenodd" xmlns:xlink="http://www.w3.org/1999/xlink">
<g><path style="opacity:1" fill="#fdfdfd" d="M -0.5,-0.5 C 166.167,-0.5 332.833,-0.5 499.5,-0.5C 499.5,31.5 499.5,63.5 499.5,95.5C 332.833,95.5 166.167,95.5 -0.5,95.5C -0.5,75.5 -0.5,55.5 -0.5,35.5C 3.77667,41.2064 7.44334,47.3731 10.5,54C 7.04715,59.7359 3.71382,65.5692 0.5,71.5C 4.10728,72.4892 7.77395,72.8226 11.5,72.5C 11.1774,76.226 11.5108,79.8927 12.5,83.5C 18.5,80.1667 24.5,76.8333 30.5,73.5C 36.5,76.8333 42.5,80.1667 48.5,83.5C 49.4892,79.8927 49.8226,76.226 49.5,72.5C 53.226,72.8226 56.8927,72.4892 60.5,71.5C 57.0322,65.3973 53.6989,59.2306 50.5,53C 53.447,46.9385 56.7804,41.1051 60.5,35.5C 56.8927,34.5108 53.226,34.1774 49.5,34.5C 49.8226,30.774 49.4892,27.1073 48.5,23.5C 42.3973,26.9678 36.2306,30.3011 30,33.5C 23.7694,30.3011 17.6027,26.9678 11.5,23.5C 10.5108,27.1073 10.1774,30.774 10.5,34.5C 6.83333,34.5 3.16667,34.5 -0.5,34.5C -0.5,22.8333 -0.5,11.1667 -0.5,-0.5 Z"/></g>
<g><path style="opacity:1" fill="#111111" d="M 97.5,32.5 C 109.782,29.8033 118.115,34.1366 122.5,45.5C 118.881,45.9561 116.548,44.4561 115.5,41C 105.705,33.8743 97.5385,35.3743 91,45.5C 88.8582,60.0194 95.0248,66.8527 109.5,66C 113.443,64.3896 116.443,61.7229 118.5,58C 119.793,57.51 121.127,57.3433 122.5,57.5C 119.83,66.1443 113.83,70.811 104.5,71.5C 89.766,69.0561 83.5993,60.3894 86,45.5C 88.2999,39.7063 92.1332,35.373 97.5,32.5 Z"/></g>
<g><path style="opacity:1" fill="#0e0e0e" d="M 137.5,32.5 C 158.033,31.1928 166.2,40.5261 162,60.5C 160.5,64.6667 157.667,67.5 153.5,69C 132.771,73.9415 123.605,65.7748 126,44.5C 128.423,39.0607 132.257,35.0607 137.5,32.5 Z"/></g>
<g><path style="opacity:1" fill="#121212" d="M 248.5,32.5 C 260.088,30.2938 268.421,34.4605 273.5,45C 271.833,45.6667 270.167,45.6667 268.5,45C 262.921,36.771 255.588,34.771 246.5,39C 238.568,47.302 238.568,55.6353 246.5,64C 255.709,68.758 263.042,66.758 268.5,58C 270.167,57.3333 271.833,57.3333 273.5,58C 269.002,67.7532 261.335,72.0866 250.5,71C 238.877,66.9274 234.043,58.7608 236,46.5C 237.926,39.7448 242.093,35.0781 248.5,32.5 Z"/></g>
<g><path style="opacity:1" fill="#121212" d="M 287.5,32.5 C 307.852,30.6148 316.352,39.6148 313,59.5C 304.957,72.5654 294.457,74.8987 281.5,66.5C 275.487,59.4516 273.987,51.4516 277,42.5C 279.738,38.2595 283.238,34.9262 287.5,32.5 Z"/></g>
<g><path style="opacity:1" fill="#0d0d0d" d="M 428.5,32.5 C 439.941,30.4074 448.275,34.4074 453.5,44.5C 451.926,45.6309 450.259,45.7975 448.5,45C 443.744,37.3033 437.078,34.97 428.5,38C 420.934,43.0339 418.767,49.8672 422,58.5C 427.417,66.8307 434.584,68.664 443.5,64C 445.351,62.3163 447.018,60.4829 448.5,58.5C 450.167,57.1667 451.833,57.1667 453.5,58.5C 448.139,69.3565 439.473,73.1898 427.5,70C 417.794,64.2463 414.294,55.7463 417,44.5C 418.08,42.0038 419.414,39.6705 421,37.5C 423.479,35.6859 425.979,34.0192 428.5,32.5 Z"/></g>
<g><path style="opacity:1" fill="#444444" d="M 471.5,37.5 C 475.298,36.5166 479.298,36.1832 483.5,36.5C 483.5,35.5 483.5,34.5 483.5,33.5C 473.833,33.5 464.167,33.5 454.5,33.5C 454.5,34.5 454.5,35.5 454.5,36.5C 458.702,36.1832 462.702,36.5166 466.5,37.5C 462.167,37.5 457.833,37.5 453.5,37.5C 453.5,35.8333 453.5,34.1667 453.5,32.5C 463.833,32.5 474.167,32.5 484.5,32.5C 484.5,34.1667 484.5,35.8333 484.5,37.5C 480.167,37.5 475.833,37.5 471.5,37.5 Z"/></g>
<g><path style="opacity:1" fill="#454545" d="M 185.5,33.5 C 179.833,33.5 174.167,33.5 168.5,33.5C 168.5,45.8333 168.5,58.1667 168.5,70.5C 167.505,58.011 167.171,45.3443 167.5,32.5C 173.69,32.1771 179.69,32.5104 185.5,33.5 Z"/></g>
<g><path style="opacity:1" fill="#0b0b0b" d="M 185.5,33.5 C 192.87,35.2249 196.037,39.8915 195,47.5C 194.529,49.2464 193.862,50.913 193,52.5C 190.833,54 188.667,55.5 186.5,57C 189.5,61.3333 192.5,65.6667 195.5,70C 193.421,70.8077 191.421,70.641 189.5,69.5C 186.441,65.772 183.774,61.772 181.5,57.5C 178.572,56.5159 175.572,56.1826 172.5,56.5C 172.5,61.1667 172.5,65.8333 172.5,70.5C 171.167,70.5 169.833,70.5 168.5,70.5C 168.5,58.1667 168.5,45.8333 168.5,33.5C 174.167,33.5 179.833,33.5 185.5,33.5 Z"/></g>
<g><path style="opacity:1" fill="#454545" d="M 216.5,33.5 C 211.167,33.5 205.833,33.5 200.5,33.5C 200.5,45.8333 200.5,58.1667 200.5,70.5C 199.505,58.011 199.171,45.3443 199.5,32.5C 205.358,32.1778 211.025,32.5111 216.5,33.5 Z"/></g>
<g><path style="opacity:1" fill="#0f0f0f" d="M 216.5,33.5 C 225.782,36.3183 228.615,42.3183 225,51.5C 223.056,54.7337 220.222,56.9003 216.5,58C 212.514,58.4988 208.514,58.6655 204.5,58.5C 204.5,62.5 204.5,66.5 204.5,70.5C 203.167,70.5 201.833,70.5 200.5,70.5C 200.5,58.1667 200.5,45.8333 200.5,33.5C 205.833,33.5 211.167,33.5 216.5,33.5 Z"/></g>
<g><path style="opacity:1" fill="#080808" d="M 324.5,43.5 C 324.217,42.7109 323.717,42.0442 323,41.5C 322.5,51.1609 322.334,60.8276 322.5,70.5C 321.167,70.5 319.833,70.5 318.5,70.5C 318.5,57.8333 318.5,45.1667 318.5,32.5C 320.722,32.178 322.556,32.8446 324,34.5C 330.087,43.6752 336.421,52.6752 343,61.5C 343.5,51.8391 343.666,42.1724 343.5,32.5C 344.833,32.5 346.167,32.5 347.5,32.5C 347.5,45.1667 347.5,57.8333 347.5,70.5C 345.278,70.822 343.444,70.1554 342,68.5C 336.336,60.0104 330.503,51.677 324.5,43.5 Z"/></g>
<g><path style="opacity:1" fill="#0a0a0a" d="M 379.5,33.5 C 380.833,33.5 382.167,33.5 383.5,33.5C 383.5,45.8333 383.5,58.1667 383.5,70.5C 381.856,70.7135 380.356,70.3802 379,69.5C 372.333,60.1667 365.667,50.8333 359,41.5C 358.5,51.1609 358.334,60.8276 358.5,70.5C 357.167,70.5 355.833,70.5 354.5,70.5C 354.5,57.8333 354.5,45.1667 354.5,32.5C 357.325,32.0807 359.491,33.0807 361,35.5C 367,44.1667 373,52.8333 379,61.5C 379.5,52.1726 379.666,42.8393 379.5,33.5 Z"/></g>
<g><path style="opacity:1" fill="#424242" d="M 379.5,33.5 C 380.919,32.5489 382.585,32.2155 384.5,32.5C 384.829,45.3443 384.495,58.011 383.5,70.5C 383.5,58.1667 383.5,45.8333 383.5,33.5C 382.167,33.5 380.833,33.5 379.5,33.5 Z"/></g>
<g><path style="opacity:1" fill="#101010" d="M 395.5,48.5 C 400.64,49.4881 405.974,49.8214 411.5,49.5C 411.5,50.8333 411.5,52.1667 411.5,53.5C 406.167,53.5 400.833,53.5 395.5,53.5C 395.5,57.5 395.5,61.5 395.5,65.5C 401.31,66.4896 407.31,66.8229 413.5,66.5C 413.5,67.8333 413.5,69.1667 413.5,70.5C 405.833,70.5 398.167,70.5 390.5,70.5C 390.5,57.8333 390.5,45.1667 390.5,32.5C 398.167,32.5 405.833,32.5 413.5,32.5C 413.5,34.1667 413.5,35.8333 413.5,37.5C 407.5,37.5 401.5,37.5 395.5,37.5C 395.5,41.1667 395.5,44.8333 395.5,48.5 Z"/></g>
<g><path style="opacity:1" fill="#0c0c0c" d="M 471.5,37.5 C 471.5,48.5 471.5,59.5 471.5,70.5C 469.833,70.5 468.167,70.5 466.5,70.5C 466.5,59.5 466.5,48.5 466.5,37.5C 462.702,36.5166 458.702,36.1832 454.5,36.5C 454.5,35.5 454.5,34.5 454.5,33.5C 464.167,33.5 473.833,33.5 483.5,33.5C 483.5,34.5 483.5,35.5 483.5,36.5C 479.298,36.1832 475.298,36.5166 471.5,37.5 Z"/></g>
<g><path style="opacity:1" fill="#f8f8f8" d="M 140.5,36.5 C 154.789,36.3997 160.623,43.3997 158,57.5C 152.667,66.7007 145.167,68.8674 135.5,64C 127.951,56.2821 127.617,48.2821 134.5,40C 136.432,38.5415 138.432,37.3748 140.5,36.5 Z"/></g>
<g><path style="opacity:1" fill="#fafafa" d="M 172.5,37.5 C 176.846,37.3343 181.179,37.501 185.5,38C 191.353,41.4512 192.019,45.7845 187.5,51C 182.599,52.3254 177.599,52.8254 172.5,52.5C 172.5,47.5 172.5,42.5 172.5,37.5 Z"/></g>
<g><path style="opacity:1" fill="#fdfdfd" d="M 204.5,37.5 C 208.514,37.3345 212.514,37.5012 216.5,38C 221.224,40.4353 222.724,44.2686 221,49.5C 219.786,51.0488 218.286,52.2155 216.5,53C 212.514,53.4988 208.514,53.6655 204.5,53.5C 204.5,48.1667 204.5,42.8333 204.5,37.5 Z"/></g>
<g><path style="opacity:1" fill="#f9f9f9" d="M 290.5,36.5 C 304.014,35.8456 310.181,42.179 309,55.5C 304.949,65.4145 297.783,68.5811 287.5,65C 284.272,63.4371 282.105,60.9371 281,57.5C 278.27,47.6374 281.436,40.6374 290.5,36.5 Z"/></g>
<g><path style="opacity:1" fill="#cacaca" d="M 324.5,43.5 C 323.833,52.5 323.167,61.5 322.5,70.5C 322.334,60.8276 322.5,51.1609 323,41.5C 323.717,42.0442 324.217,42.7109 324.5,43.5 Z"/></g>
<g><path style="opacity:1" fill="#919191" d="M 395.5,48.5 C 401.167,48.5 406.833,48.5 412.5,48.5C 412.784,50.4147 412.451,52.0813 411.5,53.5C 411.5,52.1667 411.5,50.8333 411.5,49.5C 405.974,49.8214 400.64,49.4881 395.5,48.5 Z"/></g>
<g><path style="opacity:1" fill="#080808" d="M -0.5,35.5 C -0.5,35.1667 -0.5,34.8333 -0.5,34.5C 3.16667,34.5 6.83333,34.5 10.5,34.5C 10.1774,30.774 10.5108,27.1073 11.5,23.5C 17.6027,26.9678 23.7694,30.3011 30,33.5C 36.2306,30.3011 42.3973,26.9678 48.5,23.5C 49.4892,27.1073 49.8226,30.774 49.5,34.5C 53.226,34.1774 56.8927,34.5108 60.5,35.5C 56.7804,41.1051 53.447,46.9385 50.5,53C 53.6989,59.2306 57.0322,65.3973 60.5,71.5C 56.8927,72.4892 53.226,72.8226 49.5,72.5C 49.8226,76.226 49.4892,79.8927 48.5,83.5C 42.5,80.1667 36.5,76.8333 30.5,73.5C 24.5,76.8333 18.5,80.1667 12.5,83.5C 11.5108,79.8927 11.1774,76.226 11.5,72.5C 7.77395,72.8226 4.10728,72.4892 0.5,71.5C 3.71382,65.5692 7.04715,59.7359 10.5,54C 7.44334,47.3731 3.77667,41.2064 -0.5,35.5 Z"/></g>
<g><path style="opacity:1" fill="#f5f5f5" d="M 12.5,35.5 C 18.4034,38.702 24.2367,42.0353 30,45.5C 36.2504,42.1268 42.417,38.9602 48.5,36C 45.1599,41.6828 41.8266,47.3495 38.5,53C 41.3657,58.5642 44.3657,64.0642 47.5,69.5C 47.1667,69.8333 46.8333,70.1667 46.5,70.5C 41.1667,67.5 35.8333,64.5 30.5,61.5C 24.5853,64.7069 18.7519,68.0402 13,71.5C 15.8273,65.5206 18.994,59.5206 22.5,53.5C 18.7094,47.7207 15.3761,41.7207 12.5,35.5 Z"/></g>
<g><path style="opacity:1" fill="#939393" d="M 395.5,65.5 C 401.833,65.5 408.167,65.5 414.5,65.5C 414.784,67.4147 414.451,69.0813 413.5,70.5C 413.5,69.1667 413.5,67.8333 413.5,66.5C 407.31,66.8229 401.31,66.4896 395.5,65.5 Z"/></g>
</svg>
