<?xml version="1.0" encoding="UTF-8"?>
<!DOCTYPE svg PUBLIC "-//W3C//DTD SVG 1.1//EN" "http://www.w3.org/Graphics/SVG/1.1/DTD/svg11.dtd">
<svg xmlns="http://www.w3.org/2000/svg" version="1.1" width="500px" height="98px" style="shape-rendering:geometricPrecision; text-rendering:geometricPrecision; image-rendering:optimizeQuality; fill-rule:evenodd; clip-rule:evenodd" xmlns:xlink="http://www.w3.org/1999/xlink">
<g><path style="opacity:1" fill="#fefefe" d="M -0.5,-0.5 C 166.167,-0.5 332.833,-0.5 499.5,-0.5C 499.5,32.1667 499.5,64.8333 499.5,97.5C 332.833,97.5 166.167,97.5 -0.5,97.5C -0.5,87.8333 -0.5,78.1667 -0.5,68.5C 3.16667,68.5 6.83333,68.5 10.5,68.5C 10.1774,72.226 10.5108,75.8927 11.5,79.5C 12.1067,79.3764 12.44,79.0431 12.5,78.5C 18.4728,75.1788 24.4728,71.8455 30.5,68.5C 36.5,71.8333 42.5,75.1667 48.5,78.5C 49.4892,74.8927 49.8226,71.226 49.5,67.5C 53.226,67.8226 56.8927,67.4892 60.5,66.5C 57.0322,60.3973 53.6989,54.2306 50.5,48C 53.447,41.9385 56.7804,36.1051 60.5,30.5C 56.8927,29.5108 53.226,29.1774 49.5,29.5C 49.8226,25.774 49.4892,22.1073 48.5,18.5C 42.3973,21.9678 36.2306,25.3011 30,28.5C 23.9694,24.9823 17.8027,21.649 11.5,18.5C 10.5108,22.1073 10.1774,25.774 10.5,29.5C 6.83333,29.5 3.16667,29.5 -0.5,29.5C -0.5,19.5 -0.5,9.5 -0.5,-0.5 Z"/></g>
<g><path style="opacity:1" fill="#cacaca" d="M 12.5,78.5 C 11.5184,75.0381 11.185,71.3714 11.5,67.5C 7.62859,67.815 3.96192,67.4816 0.5,66.5C 3.82118,60.5272 7.15452,54.5272 10.5,48.5C 7.30981,42.1024 3.64314,36.1024 -0.5,30.5C -0.5,30.1667 -0.5,29.8333 -0.5,29.5C 3.16667,29.5 6.83333,29.5 10.5,29.5C 10.1774,25.774 10.5108,22.1073 11.5,18.5C 17.8027,21.649 23.9694,24.9823 30,28.5C 36.2306,25.3011 42.3973,21.9678 48.5,18.5C 49.4892,22.1073 49.8226,25.774 49.5,29.5C 53.226,29.1774 56.8927,29.5108 60.5,30.5C 56.7804,36.1051 53.447,41.9385 50.5,48C 53.6989,54.2306 57.0322,60.3973 60.5,66.5C 56.8927,67.4892 53.226,67.8226 49.5,67.5C 49.8226,71.226 49.4892,74.8927 48.5,78.5C 42.5,75.1667 36.5,71.8333 30.5,68.5C 24.4728,71.8455 18.4728,75.1788 12.5,78.5 Z"/></g>
<g><path style="opacity:1" fill="#cccccc" d="M 97.5,27.5 C 109.782,24.8033 118.115,29.1366 122.5,40.5C 120.712,40.7852 119.045,40.4519 117.5,39.5C 109.995,29.8297 101.828,29.163 93,37.5C 88.044,47.871 90.544,55.7043 100.5,61C 108.077,62.539 113.744,60.039 117.5,53.5C 119.045,52.5481 120.712,52.2148 122.5,52.5C 119.83,61.1443 113.83,65.811 104.5,66.5C 89.766,64.0561 83.5993,55.3894 86,40.5C 88.2999,34.7063 92.1332,30.373 97.5,27.5 Z"/></g>
<g><path style="opacity:1" fill="#cbcbcb" d="M 137.5,27.5 C 149.206,24.9381 157.706,28.9381 163,39.5C 165.444,59.8458 156.611,68.3458 136.5,65C 130.836,62.6676 127.336,58.5009 126,52.5C 123.42,41.0032 127.253,32.6698 137.5,27.5 Z"/></g>
<g><path style="opacity:1" fill="#cccccc" d="M 249.5,27.5 C 260.7,25.5997 268.7,29.7663 273.5,40C 271.421,40.8077 269.421,40.641 267.5,39.5C 262.146,31.6634 255.146,29.8301 246.5,34C 238.568,42.302 238.568,50.6353 246.5,59C 255.564,63.2344 262.898,61.2344 268.5,53C 270.167,52.3333 271.833,52.3333 273.5,53C 269.259,63.2162 261.592,67.5495 250.5,66C 238.877,61.9274 234.043,53.7608 236,41.5C 238.017,34.3185 242.517,29.6518 249.5,27.5 Z"/></g>
<g><path style="opacity:1" fill="#cccccc" d="M 287.5,27.5 C 306.051,25.1472 314.885,33.1472 314,51.5C 309.049,64.3918 299.882,68.8918 286.5,65C 276.229,58.4605 273.062,49.2938 277,37.5C 279.738,33.2595 283.238,29.9262 287.5,27.5 Z"/></g>
<g><path style="opacity:1" fill="#cbcbcb" d="M 428.5,27.5 C 439.941,25.4074 448.275,29.4074 453.5,39.5C 451.926,40.6309 450.259,40.7975 448.5,40C 443.704,32.4643 437.038,30.1309 428.5,33C 418.675,40.9384 418.008,49.605 426.5,59C 435.391,63.4258 442.724,61.5924 448.5,53.5C 450.167,52.1667 451.833,52.1667 453.5,53.5C 448.981,63.3993 441.314,67.566 430.5,66C 418.519,61.2092 414.019,52.3759 417,39.5C 418.08,37.0038 419.414,34.6705 421,32.5C 423.479,30.6859 425.979,29.0192 428.5,27.5 Z"/></g>
<g><path style="opacity:1" fill="#d7d7d7" d="M 471.5,32.5 C 475.298,31.5166 479.298,31.1832 483.5,31.5C 483.5,30.5 483.5,29.5 483.5,28.5C 473.833,28.5 464.167,28.5 454.5,28.5C 454.5,29.5 454.5,30.5 454.5,31.5C 458.702,31.1832 462.702,31.5166 466.5,32.5C 462.167,32.5 457.833,32.5 453.5,32.5C 453.5,30.8333 453.5,29.1667 453.5,27.5C 463.833,27.5 474.167,27.5 484.5,27.5C 484.5,29.1667 484.5,30.8333 484.5,32.5C 480.167,32.5 475.833,32.5 471.5,32.5 Z"/></g>
<g><path style="opacity:1" fill="#d8d8d8" d="M 186.5,28.5 C 180.5,28.5 174.5,28.5 168.5,28.5C 168.5,40.8333 168.5,53.1667 168.5,65.5C 167.505,53.011 167.171,40.3443 167.5,27.5C 174.022,27.1765 180.355,27.5098 186.5,28.5 Z"/></g>
<g><path style="opacity:1" fill="#cacaca" d="M 186.5,28.5 C 195.444,32.4066 197.61,38.7399 193,47.5C 190.92,49.1233 188.754,50.6233 186.5,52C 189.5,56.3333 192.5,60.6667 195.5,65C 193.421,65.8077 191.421,65.641 189.5,64.5C 186.441,60.772 183.774,56.772 181.5,52.5C 178.572,51.5159 175.572,51.1826 172.5,51.5C 172.5,56.1667 172.5,60.8333 172.5,65.5C 171.167,65.5 169.833,65.5 168.5,65.5C 168.5,53.1667 168.5,40.8333 168.5,28.5C 174.5,28.5 180.5,28.5 186.5,28.5 Z"/></g>
<g><path style="opacity:1" fill="#d8d8d8" d="M 216.5,28.5 C 211.167,28.5 205.833,28.5 200.5,28.5C 200.5,40.8333 200.5,53.1667 200.5,65.5C 199.505,53.011 199.171,40.3443 199.5,27.5C 205.358,27.1778 211.025,27.5111 216.5,28.5 Z"/></g>
<g><path style="opacity:1" fill="#cbcbcb" d="M 216.5,28.5 C 225.782,31.3183 228.615,37.3183 225,46.5C 223.056,49.7337 220.222,51.9003 216.5,53C 212.514,53.4988 208.514,53.6655 204.5,53.5C 204.5,57.5 204.5,61.5 204.5,65.5C 203.167,65.5 201.833,65.5 200.5,65.5C 200.5,53.1667 200.5,40.8333 200.5,28.5C 205.833,28.5 211.167,28.5 216.5,28.5 Z"/></g>
<g><path style="opacity:1" fill="#cbcbcb" d="M 324.5,38.5 C 324.217,37.7109 323.717,37.0442 323,36.5C 322.5,46.1609 322.334,55.8276 322.5,65.5C 321.167,65.5 319.833,65.5 318.5,65.5C 318.5,52.8333 318.5,40.1667 318.5,27.5C 320.722,27.178 322.556,27.8446 324,29.5C 330.087,38.6752 336.421,47.6752 343,56.5C 343.5,46.8391 343.666,37.1724 343.5,27.5C 345.167,27.5 346.833,27.5 348.5,27.5C 348.5,40.1667 348.5,52.8333 348.5,65.5C 345.956,65.8957 343.789,65.229 342,63.5C 336.336,55.0104 330.503,46.677 324.5,38.5 Z"/></g>
<g><path style="opacity:1" fill="#cacaca" d="M 378.5,56.5 C 378.56,57.0431 378.893,57.3764 379.5,57.5C 380.498,47.8563 380.832,38.1896 380.5,28.5C 381.5,28.5 382.5,28.5 383.5,28.5C 383.5,40.8333 383.5,53.1667 383.5,65.5C 381.856,65.7135 380.356,65.3802 379,64.5C 372.333,55.1667 365.667,45.8333 359,36.5C 358.5,46.1609 358.334,55.8276 358.5,65.5C 357.167,65.5 355.833,65.5 354.5,65.5C 354.5,52.8333 354.5,40.1667 354.5,27.5C 356.288,27.2148 357.955,27.5481 359.5,28.5C 365.859,37.8512 372.192,47.1845 378.5,56.5 Z"/></g>
<g><path style="opacity:1" fill="#d5d5d5" d="M 383.5,65.5 C 383.5,53.1667 383.5,40.8333 383.5,28.5C 382.5,28.5 381.5,28.5 380.5,28.5C 380.832,38.1896 380.498,47.8563 379.5,57.5C 378.893,57.3764 378.56,57.0431 378.5,56.5C 379.494,47.0144 379.827,37.3478 379.5,27.5C 381.167,27.5 382.833,27.5 384.5,27.5C 384.829,40.3443 384.495,53.011 383.5,65.5 Z"/></g>
<g><path style="opacity:1" fill="#cbcbcb" d="M 395.5,43.5 C 400.64,44.4881 405.974,44.8214 411.5,44.5C 411.5,45.8333 411.5,47.1667 411.5,48.5C 406.167,48.5 400.833,48.5 395.5,48.5C 395.5,52.5 395.5,56.5 395.5,60.5C 401.31,61.4896 407.31,61.8229 413.5,61.5C 413.5,62.8333 413.5,64.1667 413.5,65.5C 405.833,65.5 398.167,65.5 390.5,65.5C 390.5,52.8333 390.5,40.1667 390.5,27.5C 398.167,27.5 405.833,27.5 413.5,27.5C 413.5,29.1667 413.5,30.8333 413.5,32.5C 407.5,32.5 401.5,32.5 395.5,32.5C 395.5,36.1667 395.5,39.8333 395.5,43.5 Z"/></g>
<g><path style="opacity:1" fill="#cacaca" d="M 471.5,32.5 C 471.5,43.5 471.5,54.5 471.5,65.5C 469.833,65.5 468.167,65.5 466.5,65.5C 466.5,54.5 466.5,43.5 466.5,32.5C 462.702,31.5166 458.702,31.1832 454.5,31.5C 454.5,30.5 454.5,29.5 454.5,28.5C 464.167,28.5 473.833,28.5 483.5,28.5C 483.5,29.5 483.5,30.5 483.5,31.5C 479.298,31.1832 475.298,31.5166 471.5,32.5 Z"/></g>
<g><path style="opacity:1" fill="#fdfdfd" d="M -0.5,30.5 C 3.64314,36.1024 7.30981,42.1024 10.5,48.5C 7.15452,54.5272 3.82118,60.5272 0.5,66.5C 0.166667,66.5 -0.166667,66.5 -0.5,66.5C -0.5,54.5 -0.5,42.5 -0.5,30.5 Z"/></g>
<g><path style="opacity:1" fill="#fdfdfd" d="M 12.5,30.5 C 18.4034,33.702 24.2367,37.0353 30,40.5C 36.2504,37.1268 42.417,33.9602 48.5,31C 45.1599,36.6828 41.8266,42.3495 38.5,48C 41.3657,53.5642 44.3657,59.0642 47.5,64.5C 47.1667,64.8333 46.8333,65.1667 46.5,65.5C 41.1667,62.5 35.8333,59.5 30.5,56.5C 24.5853,59.7069 18.7519,63.0402 13,66.5C 15.8273,60.5206 18.994,54.5206 22.5,48.5C 18.7094,42.7207 15.3761,36.7207 12.5,30.5 Z"/></g>
<g><path style="opacity:1" fill="#fdfdfd" d="M 140.5,31.5 C 154.789,31.3997 160.623,38.3997 158,52.5C 152.667,61.7007 145.167,63.8674 135.5,59C 127.951,51.2821 127.617,43.2821 134.5,35C 136.432,33.5415 138.432,32.3748 140.5,31.5 Z"/></g>
<g><path style="opacity:1" fill="#fefefe" d="M 172.5,32.5 C 176.846,32.3343 181.179,32.501 185.5,33C 191.353,36.4512 192.019,40.7845 187.5,46C 182.599,47.3254 177.599,47.8254 172.5,47.5C 172.5,42.5 172.5,37.5 172.5,32.5 Z"/></g>
<g><path style="opacity:1" fill="#fefefe" d="M 204.5,32.5 C 208.514,32.3345 212.514,32.5012 216.5,33C 221.224,35.4353 222.724,39.2686 221,44.5C 219.786,46.0488 218.286,47.2155 216.5,48C 212.514,48.4988 208.514,48.6655 204.5,48.5C 204.5,43.1667 204.5,37.8333 204.5,32.5 Z"/></g>
<g><path style="opacity:1" fill="#fdfdfd" d="M 290.5,31.5 C 304.014,30.8456 310.181,37.179 309,50.5C 304.949,60.4145 297.783,63.5811 287.5,60C 283.835,58.332 281.668,55.4987 281,51.5C 280.333,47.8333 280.333,44.1667 281,40.5C 283.406,36.5915 286.572,33.5915 290.5,31.5 Z"/></g>
<g><path style="opacity:1" fill="#f3f3f3" d="M 324.5,38.5 C 323.833,47.5 323.167,56.5 322.5,65.5C 322.334,55.8276 322.5,46.1609 323,36.5C 323.717,37.0442 324.217,37.7109 324.5,38.5 Z"/></g>
<g><path style="opacity:1" fill="#e7e7e7" d="M 395.5,43.5 C 401.167,43.5 406.833,43.5 412.5,43.5C 412.784,45.4147 412.451,47.0813 411.5,48.5C 411.5,47.1667 411.5,45.8333 411.5,44.5C 405.974,44.8214 400.64,44.4881 395.5,43.5 Z"/></g>
<g><path style="opacity:1" fill="#e8e8e8" d="M 395.5,60.5 C 401.833,60.5 408.167,60.5 414.5,60.5C 414.784,62.4147 414.451,64.0813 413.5,65.5C 413.5,64.1667 413.5,62.8333 413.5,61.5C 407.31,61.8229 401.31,61.4896 395.5,60.5 Z"/></g>
<g><path style="opacity:1" fill="#f0f0f0" d="M -0.5,66.5 C -0.166667,66.5 0.166667,66.5 0.5,66.5C 3.96192,67.4816 7.62859,67.815 11.5,67.5C 11.185,71.3714 11.5184,75.0381 12.5,78.5C 12.44,79.0431 12.1067,79.3764 11.5,79.5C 10.5108,75.8927 10.1774,72.226 10.5,68.5C 6.83333,68.5 3.16667,68.5 -0.5,68.5C -0.5,67.8333 -0.5,67.1667 -0.5,66.5 Z"/></g>
</svg>
