<?xml version="1.0" encoding="UTF-8"?>
<!DOCTYPE svg PUBLIC "-//W3C//DTD SVG 1.1//EN" "http://www.w3.org/Graphics/SVG/1.1/DTD/svg11.dtd">
<svg xmlns="http://www.w3.org/2000/svg" version="1.1" width="500px" height="109px" style="shape-rendering:geometricPrecision; text-rendering:geometricPrecision; image-rendering:optimizeQuality; fill-rule:evenodd; clip-rule:evenodd" xmlns:xlink="http://www.w3.org/1999/xlink">
<g><path style="opacity:1" fill="#000000" d="M -0.5,-0.5 C 166.167,-0.5 332.833,-0.5 499.5,-0.5C 499.5,35.8333 499.5,72.1667 499.5,108.5C 332.833,108.5 166.167,108.5 -0.5,108.5C -0.5,83.1667 -0.5,57.8333 -0.5,32.5C 3.77667,38.2064 7.44334,44.3731 10.5,51C 7.04715,56.7359 3.71382,62.5692 0.5,68.5C 4.10728,69.4892 7.77395,69.8226 11.5,69.5C 11.1774,73.226 11.5108,76.8927 12.5,80.5C 18.5,77.1667 24.5,73.8333 30.5,70.5C 36.5,73.8333 42.5,77.1667 48.5,80.5C 49.4892,76.8927 49.8226,73.226 49.5,69.5C 53.226,69.8226 56.8927,69.4892 60.5,68.5C 57.0322,62.3973 53.6989,56.2306 50.5,50C 53.447,43.9385 56.7804,38.1051 60.5,32.5C 56.8927,31.5108 53.226,31.1774 49.5,31.5C 49.8226,27.774 49.4892,24.1073 48.5,20.5C 42.3973,23.9678 36.2306,27.3011 30,30.5C 23.8548,27.4274 17.8548,24.0941 12,20.5C 11.5014,24.1516 11.3347,27.8183 11.5,31.5C 7.5,31.5 3.5,31.5 -0.5,31.5C -0.5,20.8333 -0.5,10.1667 -0.5,-0.5 Z"/></g>
<g><path style="opacity:1" fill="#343434" d="M -0.5,32.5 C -0.5,32.1667 -0.5,31.8333 -0.5,31.5C 3.5,31.5 7.5,31.5 11.5,31.5C 11.3347,27.8183 11.5014,24.1516 12,20.5C 17.8548,24.0941 23.8548,27.4274 30,30.5C 36.2306,27.3011 42.3973,23.9678 48.5,20.5C 49.4892,24.1073 49.8226,27.774 49.5,31.5C 53.226,31.1774 56.8927,31.5108 60.5,32.5C 56.7804,38.1051 53.447,43.9385 50.5,50C 53.6989,56.2306 57.0322,62.3973 60.5,68.5C 56.8927,69.4892 53.226,69.8226 49.5,69.5C 49.8226,73.226 49.4892,76.8927 48.5,80.5C 42.5,77.1667 36.5,73.8333 30.5,70.5C 24.5,73.8333 18.5,77.1667 12.5,80.5C 11.5108,76.8927 11.1774,73.226 11.5,69.5C 7.77395,69.8226 4.10728,69.4892 0.5,68.5C 3.71382,62.5692 7.04715,56.7359 10.5,51C 7.44334,44.3731 3.77667,38.2064 -0.5,32.5 Z"/></g>
<g><path style="opacity:1" fill="#76766f" d="M 97.5,29.5 C 107.022,27.5066 114.855,30.1733 121,37.5C 122.009,39.0249 122.509,40.6916 122.5,42.5C 120.712,42.7852 119.045,42.4519 117.5,41.5C 109.995,31.8297 101.828,31.163 93,39.5C 88.0911,49.7715 90.5911,57.6048 100.5,63C 108.077,64.539 113.744,62.039 117.5,55.5C 119.045,54.5481 120.712,54.2148 122.5,54.5C 119.908,63.577 113.741,68.2437 104,68.5C 89.6335,65.7977 83.6335,57.1311 86,42.5C 88.2999,36.7063 92.1332,32.373 97.5,29.5 Z"/></g>
<g><path style="opacity:1" fill="#75756e" d="M 137.5,29.5 C 149.165,27.0971 157.665,31.0971 163,41.5C 165.102,63.3493 155.602,71.5159 134.5,66C 122.798,56.6832 121.464,46.0165 130.5,34C 132.898,32.4758 135.231,30.9758 137.5,29.5 Z"/></g>
<g><path style="opacity:1" fill="#75756f" d="M 239.5,29.5 C 251.126,27.0248 259.459,31.0248 264.5,41.5C 262.926,42.6309 261.259,42.7975 259.5,42C 254.283,33.7048 247.283,31.7048 238.5,36C 231.432,43.0614 230.599,50.8948 236,59.5C 245.156,65.6453 252.989,64.312 259.5,55.5C 261.045,54.5481 262.712,54.2148 264.5,54.5C 260.597,65.1268 252.93,69.6268 241.5,68C 227.524,61.8538 223.691,51.6871 230,37.5C 232.772,34.2166 235.939,31.5499 239.5,29.5 Z"/></g>
<g><path style="opacity:1" fill="#767670" d="M 278.5,29.5 C 301.818,28.303 309.652,38.6363 302,60.5C 291.333,71.1667 280.667,71.1667 270,60.5C 263.106,47.3793 265.94,37.046 278.5,29.5 Z"/></g>
<g><path style="opacity:1" fill="#76766f" d="M 419.5,29.5 C 429.022,27.5066 436.855,30.1733 443,37.5C 444.009,39.0249 444.509,40.6916 444.5,42.5C 442.712,42.7852 441.045,42.4519 439.5,41.5C 431.995,31.8297 423.828,31.163 415,39.5C 410.091,49.7715 412.591,57.6048 422.5,63C 430.077,64.539 435.744,62.039 439.5,55.5C 441.045,54.5481 442.712,54.2148 444.5,54.5C 441.908,63.577 435.741,68.2437 426,68.5C 411.633,65.7977 405.633,57.1311 408,42.5C 410.3,36.7063 414.133,32.373 419.5,29.5 Z"/></g>
<g><path style="opacity:1" fill="#61615b" d="M 186.5,30.5 C 180.5,30.5 174.5,30.5 168.5,30.5C 168.5,42.8333 168.5,55.1667 168.5,67.5C 167.505,55.011 167.171,42.3443 167.5,29.5C 174.022,29.1765 180.355,29.5098 186.5,30.5 Z"/></g>
<g><path style="opacity:1" fill="#787871" d="M 186.5,30.5 C 195.431,34.3846 197.597,40.7179 193,49.5C 190.92,51.1233 188.754,52.6233 186.5,54C 189.5,58.3333 192.5,62.6667 195.5,67C 193.5,67.6667 191.5,67.6667 189.5,67C 186.833,63 184.167,59 181.5,55C 178.518,54.502 175.518,54.3354 172.5,54.5C 172.5,58.8333 172.5,63.1667 172.5,67.5C 171.167,67.5 169.833,67.5 168.5,67.5C 168.5,55.1667 168.5,42.8333 168.5,30.5C 174.5,30.5 180.5,30.5 186.5,30.5 Z"/></g>
<g><path style="opacity:1" fill="#61615b" d="M 216.5,30.5 C 211.167,30.5 205.833,30.5 200.5,30.5C 200.5,42.8333 200.5,55.1667 200.5,67.5C 199.505,55.011 199.171,42.3443 199.5,29.5C 205.358,29.1778 211.025,29.5111 216.5,30.5 Z"/></g>
<g><path style="opacity:1" fill="#787871" d="M 216.5,30.5 C 225.997,33.1651 228.83,39.1651 225,48.5C 223.056,51.7337 220.222,53.9003 216.5,55C 212.514,55.4988 208.514,55.6655 204.5,55.5C 204.5,59.5 204.5,63.5 204.5,67.5C 203.167,67.5 201.833,67.5 200.5,67.5C 200.5,55.1667 200.5,42.8333 200.5,30.5C 205.833,30.5 211.167,30.5 216.5,30.5 Z"/></g>
<g><path style="opacity:1" fill="#76766f" d="M 334.5,30.5 C 335.833,30.5 337.167,30.5 338.5,30.5C 338.5,42.8333 338.5,55.1667 338.5,67.5C 336.856,67.7135 335.356,67.3802 334,66.5C 327.667,57.5 321.333,48.5 315,39.5C 314.5,48.8274 314.334,58.1607 314.5,67.5C 312.833,67.5 311.167,67.5 309.5,67.5C 309.5,54.8333 309.5,42.1667 309.5,29.5C 311.288,29.2148 312.955,29.5481 314.5,30.5C 320.805,39.9714 327.305,49.3047 334,58.5C 334.5,49.1726 334.666,39.8393 334.5,30.5 Z"/></g>
<g><path style="opacity:1" fill="#63625d" d="M 334.5,30.5 C 335.919,29.5489 337.585,29.2155 339.5,29.5C 339.829,42.3443 339.495,55.011 338.5,67.5C 338.5,55.1667 338.5,42.8333 338.5,30.5C 337.167,30.5 335.833,30.5 334.5,30.5 Z"/></g>
<g><path style="opacity:1" fill="#7a7a73" d="M 369.5,57.5 C 369.56,58.0431 369.893,58.3764 370.5,58.5C 371.498,49.1904 371.832,39.8571 371.5,30.5C 372.833,30.5 374.167,30.5 375.5,30.5C 375.5,42.8333 375.5,55.1667 375.5,67.5C 373.533,67.7394 371.699,67.4061 370,66.5C 363.823,57.4712 357.657,48.4712 351.5,39.5C 351.44,38.9569 351.107,38.6236 350.5,38.5C 349.502,48.1437 349.168,57.8104 349.5,67.5C 348.167,67.5 346.833,67.5 345.5,67.5C 345.5,54.8333 345.5,42.1667 345.5,29.5C 347.288,29.2148 348.955,29.5481 350.5,30.5C 357.089,39.3539 363.422,48.3539 369.5,57.5 Z"/></g>
<g><path style="opacity:1" fill="#54534f" d="M 375.5,30.5 C 374.167,30.5 372.833,30.5 371.5,30.5C 371.832,39.8571 371.498,49.1904 370.5,58.5C 369.893,58.3764 369.56,58.0431 369.5,57.5C 370.494,48.3483 370.827,39.015 370.5,29.5C 372.415,29.2155 374.081,29.5489 375.5,30.5 Z"/></g>
<g><path style="opacity:1" fill="#7c7c75" d="M 386.5,34.5 C 386.5,38.5 386.5,42.5 386.5,46.5C 392.167,46.5 397.833,46.5 403.5,46.5C 403.5,47.8333 403.5,49.1667 403.5,50.5C 398.167,50.5 392.833,50.5 387.5,50.5C 386.515,54.6344 386.182,58.9677 386.5,63.5C 392.833,63.5 399.167,63.5 405.5,63.5C 405.5,64.8333 405.5,66.1667 405.5,67.5C 397.833,67.5 390.167,67.5 382.5,67.5C 382.5,55.1667 382.5,42.8333 382.5,30.5C 389.833,30.5 397.167,30.5 404.5,30.5C 404.5,31.5 404.5,32.5 404.5,33.5C 398.31,33.1771 392.31,33.5104 386.5,34.5 Z"/></g>
<g><path style="opacity:1" fill="#787871" d="M 445.5,29.5 C 455.5,29.5 465.5,29.5 475.5,29.5C 475.5,31.1667 475.5,32.8333 475.5,34.5C 471.167,34.5 466.833,34.5 462.5,34.5C 462.5,45.5 462.5,56.5 462.5,67.5C 461.167,67.5 459.833,67.5 458.5,67.5C 458.5,56.5 458.5,45.5 458.5,34.5C 454.167,34.5 449.833,34.5 445.5,34.5C 445.5,32.8333 445.5,31.1667 445.5,29.5 Z"/></g>
<g><path style="opacity:1" fill="#020202" d="M 12.5,32.5 C 18.4728,35.8212 24.4728,39.1545 30.5,42.5C 36.5206,38.994 42.5206,35.8273 48.5,33C 45.1599,38.6828 41.8266,44.3495 38.5,50C 41.3657,55.5642 44.3657,61.0642 47.5,66.5C 47.1667,66.8333 46.8333,67.1667 46.5,67.5C 41.1667,64.5 35.8333,61.5 30.5,58.5C 24.5853,61.7069 18.7519,65.0402 13,68.5C 15.8273,62.5206 18.994,56.5206 22.5,50.5C 18.6351,44.7679 15.3018,38.7679 12.5,32.5 Z"/></g>
<g><path style="opacity:1" fill="#51514d" d="M 387.5,34.5 C 387.167,34.5 386.833,34.5 386.5,34.5C 392.31,33.5104 398.31,33.1771 404.5,33.5C 404.5,32.5 404.5,31.5 404.5,30.5C 397.167,30.5 389.833,30.5 382.5,30.5C 382.5,42.8333 382.5,55.1667 382.5,67.5C 381.505,55.011 381.171,42.3443 381.5,29.5C 389.5,29.5 397.5,29.5 405.5,29.5C 405.5,31.1667 405.5,32.8333 405.5,34.5C 399.5,34.5 393.5,34.5 387.5,34.5 Z"/></g>
<g><path style="opacity:1" fill="#040404" d="M 140.5,33.5 C 155.893,34.0603 161.393,41.727 157,56.5C 151.172,63.881 144.005,65.381 135.5,61C 126.3,49.7361 127.966,40.5694 140.5,33.5 Z"/></g>
<g><path style="opacity:1" fill="#040404" d="M 172.5,34.5 C 176.846,34.3343 181.179,34.501 185.5,35C 190.626,37.553 191.793,41.3864 189,46.5C 188.097,47.7014 186.931,48.5348 185.5,49C 181.179,49.499 176.846,49.6657 172.5,49.5C 172.5,44.5 172.5,39.5 172.5,34.5 Z"/></g>
<g><path style="opacity:1" fill="#000000" d="M 204.5,34.5 C 208.514,34.3345 212.514,34.5012 216.5,35C 221.689,37.9132 222.856,42.0799 220,47.5C 219.097,48.7014 217.931,49.5348 216.5,50C 212.514,50.4988 208.514,50.6655 204.5,50.5C 204.5,45.1667 204.5,39.8333 204.5,34.5 Z"/></g>
<g><path style="opacity:1" fill="#030302" d="M 282.5,33.5 C 298.49,34.4754 303.656,42.4754 298,57.5C 289.968,65.4234 281.968,65.4234 274,57.5C 268.718,46.4304 271.551,38.4304 282.5,33.5 Z"/></g>
<g><path style="opacity:1" fill="#5c5b56" d="M 351.5,39.5 C 350.833,48.8333 350.167,58.1667 349.5,67.5C 349.168,57.8104 349.502,48.1437 350.5,38.5C 351.107,38.6236 351.44,38.9569 351.5,39.5 Z"/></g>
<g><path style="opacity:1" fill="#363633" d="M 386.5,34.5 C 386.833,34.5 387.167,34.5 387.5,34.5C 387.5,38.1667 387.5,41.8333 387.5,45.5C 393.026,45.1786 398.36,45.5119 403.5,46.5C 397.833,46.5 392.167,46.5 386.5,46.5C 386.5,42.5 386.5,38.5 386.5,34.5 Z"/></g>
<g><path style="opacity:1" fill="#363633" d="M 387.5,50.5 C 387.5,54.5 387.5,58.5 387.5,62.5C 393.69,62.1771 399.69,62.5104 405.5,63.5C 399.167,63.5 392.833,63.5 386.5,63.5C 386.182,58.9677 386.515,54.6344 387.5,50.5 Z"/></g>
</svg>
