<?xml version="1.0" encoding="UTF-8"?>
<!DOCTYPE svg PUBLIC "-//W3C//DTD SVG 1.1//EN" "http://www.w3.org/Graphics/SVG/1.1/DTD/svg11.dtd">
<svg xmlns="http://www.w3.org/2000/svg" version="1.1" width="500px" height="500px" style="shape-rendering:geometricPrecision; text-rendering:geometricPrecision; image-rendering:optimizeQuality; fill-rule:evenodd; clip-rule:evenodd" xmlns:xlink="http://www.w3.org/1999/xlink">
<g><path style="opacity:1" fill="#fefefe" d="M -0.5,-0.5 C 166.167,-0.5 332.833,-0.5 499.5,-0.5C 499.5,166.167 499.5,332.833 499.5,499.5C 332.833,499.5 166.167,499.5 -0.5,499.5C -0.5,410.167 -0.5,320.833 -0.5,231.5C 3.77667,237.206 7.44334,243.373 10.5,250C 7.04715,255.736 3.71382,261.569 0.5,267.5C 4.10728,268.489 7.77395,268.823 11.5,268.5C 11.1774,272.226 11.5108,275.893 12.5,279.5C 18.5,276.167 24.5,272.833 30.5,269.5C 36.5,272.833 42.5,276.167 48.5,279.5C 49.4892,275.893 49.8226,272.226 49.5,268.5C 53.226,268.823 56.8927,268.489 60.5,267.5C 57.0322,261.397 53.6989,255.231 50.5,249C 53.447,242.938 56.7804,237.105 60.5,231.5C 56.8927,230.511 53.226,230.177 49.5,230.5C 49.8226,226.774 49.4892,223.107 48.5,219.5C 42.3973,222.968 36.2306,226.301 30,229.5C 23.7694,226.301 17.6027,222.968 11.5,219.5C 10.5108,223.107 10.1774,226.774 10.5,230.5C 6.83333,230.5 3.16667,230.5 -0.5,230.5C -0.5,153.5 -0.5,76.5 -0.5,-0.5 Z"/></g>
<g><path style="opacity:1" fill="#111111" d="M 97.5,228.5 C 109.782,225.803 118.115,230.137 122.5,241.5C 118.881,241.956 116.548,240.456 115.5,237C 105.705,229.874 97.5385,231.374 91,241.5C 88.8582,256.019 95.0248,262.853 109.5,262C 113.443,260.39 116.443,257.723 118.5,254C 119.793,253.51 121.127,253.343 122.5,253.5C 119.83,262.144 113.83,266.811 104.5,267.5C 89.766,265.056 83.5993,256.389 86,241.5C 88.2999,235.706 92.1332,231.373 97.5,228.5 Z"/></g>
<g><path style="opacity:1" fill="#0e0e0e" d="M 137.5,228.5 C 158.033,227.193 166.2,236.526 162,256.5C 160.5,260.667 157.667,263.5 153.5,265C 132.771,269.942 123.605,261.775 126,240.5C 128.423,235.061 132.257,231.061 137.5,228.5 Z"/></g>
<g><path style="opacity:1" fill="#121212" d="M 248.5,228.5 C 260.088,226.294 268.421,230.461 273.5,241C 271.833,241.667 270.167,241.667 268.5,241C 262.921,232.771 255.588,230.771 246.5,235C 238.568,243.302 238.568,251.635 246.5,260C 255.709,264.758 263.042,262.758 268.5,254C 270.167,253.333 271.833,253.333 273.5,254C 269.002,263.753 261.335,268.087 250.5,267C 238.877,262.927 234.043,254.761 236,242.5C 237.926,235.745 242.093,231.078 248.5,228.5 Z"/></g>
<g><path style="opacity:1" fill="#121212" d="M 287.5,228.5 C 307.852,226.615 316.352,235.615 313,255.5C 304.957,268.565 294.457,270.899 281.5,262.5C 275.487,255.452 273.987,247.452 277,238.5C 279.738,234.26 283.238,230.926 287.5,228.5 Z"/></g>
<g><path style="opacity:1" fill="#0d0d0d" d="M 428.5,228.5 C 439.941,226.407 448.275,230.407 453.5,240.5C 451.926,241.631 450.259,241.798 448.5,241C 443.744,233.303 437.078,230.97 428.5,234C 420.934,239.034 418.767,245.867 422,254.5C 427.417,262.831 434.584,264.664 443.5,260C 445.351,258.316 447.018,256.483 448.5,254.5C 450.167,253.167 451.833,253.167 453.5,254.5C 448.139,265.356 439.473,269.19 427.5,266C 417.794,260.246 414.294,251.746 417,240.5C 418.08,238.004 419.414,235.67 421,233.5C 423.479,231.686 425.979,230.019 428.5,228.5 Z"/></g>
<g><path style="opacity:1" fill="#454545" d="M 185.5,229.5 C 179.833,229.5 174.167,229.5 168.5,229.5C 168.5,241.833 168.5,254.167 168.5,266.5C 167.505,254.011 167.171,241.344 167.5,228.5C 173.69,228.177 179.69,228.51 185.5,229.5 Z"/></g>
<g><path style="opacity:1" fill="#0b0b0b" d="M 185.5,229.5 C 192.87,231.225 196.037,235.892 195,243.5C 194.529,245.246 193.862,246.913 193,248.5C 190.833,250 188.667,251.5 186.5,253C 189.5,257.333 192.5,261.667 195.5,266C 193.421,266.808 191.421,266.641 189.5,265.5C 186.441,261.772 183.774,257.772 181.5,253.5C 178.572,252.516 175.572,252.183 172.5,252.5C 172.5,257.167 172.5,261.833 172.5,266.5C 171.167,266.5 169.833,266.5 168.5,266.5C 168.5,254.167 168.5,241.833 168.5,229.5C 174.167,229.5 179.833,229.5 185.5,229.5 Z"/></g>
<g><path style="opacity:1" fill="#454545" d="M 216.5,229.5 C 211.167,229.5 205.833,229.5 200.5,229.5C 200.5,241.833 200.5,254.167 200.5,266.5C 199.505,254.011 199.171,241.344 199.5,228.5C 205.358,228.178 211.025,228.511 216.5,229.5 Z"/></g>
<g><path style="opacity:1" fill="#0f0f0f" d="M 216.5,229.5 C 225.782,232.318 228.615,238.318 225,247.5C 223.056,250.734 220.222,252.9 216.5,254C 212.514,254.499 208.514,254.666 204.5,254.5C 204.5,258.5 204.5,262.5 204.5,266.5C 203.167,266.5 201.833,266.5 200.5,266.5C 200.5,254.167 200.5,241.833 200.5,229.5C 205.833,229.5 211.167,229.5 216.5,229.5 Z"/></g>
<g><path style="opacity:1" fill="#080808" d="M 318.5,228.5 C 320.722,228.178 322.556,228.845 324,230.5C 330.087,239.675 336.421,248.675 343,257.5C 343.5,247.839 343.666,238.172 343.5,228.5C 344.833,228.5 346.167,228.5 347.5,228.5C 347.5,241.167 347.5,253.833 347.5,266.5C 345.278,266.822 343.444,266.155 342,264.5C 335.667,255.5 329.333,246.5 323,237.5C 322.5,247.161 322.334,256.828 322.5,266.5C 321.167,266.5 319.833,266.5 318.5,266.5C 318.5,253.833 318.5,241.167 318.5,228.5 Z"/></g>
<g><path style="opacity:1" fill="#0a0a0a" d="M 379.5,229.5 C 380.833,229.5 382.167,229.5 383.5,229.5C 383.5,241.833 383.5,254.167 383.5,266.5C 381.856,266.714 380.356,266.38 379,265.5C 372.333,256.167 365.667,246.833 359,237.5C 358.5,247.161 358.334,256.828 358.5,266.5C 357.167,266.5 355.833,266.5 354.5,266.5C 354.5,253.833 354.5,241.167 354.5,228.5C 357.325,228.081 359.491,229.081 361,231.5C 367,240.167 373,248.833 379,257.5C 379.5,248.173 379.666,238.839 379.5,229.5 Z"/></g>
<g><path style="opacity:1" fill="#424242" d="M 379.5,229.5 C 380.919,228.549 382.585,228.216 384.5,228.5C 384.829,241.344 384.495,254.011 383.5,266.5C 383.5,254.167 383.5,241.833 383.5,229.5C 382.167,229.5 380.833,229.5 379.5,229.5 Z"/></g>
<g><path style="opacity:1" fill="#101010" d="M 395.5,244.5 C 400.64,245.488 405.974,245.821 411.5,245.5C 411.5,246.833 411.5,248.167 411.5,249.5C 406.167,249.5 400.833,249.5 395.5,249.5C 395.5,253.5 395.5,257.5 395.5,261.5C 401.31,262.49 407.31,262.823 413.5,262.5C 413.5,263.833 413.5,265.167 413.5,266.5C 405.833,266.5 398.167,266.5 390.5,266.5C 390.5,253.833 390.5,241.167 390.5,228.5C 398.167,228.5 405.833,228.5 413.5,228.5C 413.5,230.167 413.5,231.833 413.5,233.5C 407.5,233.5 401.5,233.5 395.5,233.5C 395.5,237.167 395.5,240.833 395.5,244.5 Z"/></g>
<g><path style="opacity:1" fill="#0c0c0c" d="M 471.5,233.5 C 471.5,244.5 471.5,255.5 471.5,266.5C 469.833,266.5 468.167,266.5 466.5,266.5C 466.5,255.5 466.5,244.5 466.5,233.5C 462.702,232.517 458.702,232.183 454.5,232.5C 454.5,231.5 454.5,230.5 454.5,229.5C 464.167,229.5 473.833,229.5 483.5,229.5C 483.5,230.5 483.5,231.5 483.5,232.5C 479.298,232.183 475.298,232.517 471.5,233.5 Z"/></g>
<g><path style="opacity:1" fill="#484848" d="M 471.5,233.5 C 475.298,232.517 479.298,232.183 483.5,232.5C 483.5,231.5 483.5,230.5 483.5,229.5C 473.833,229.5 464.167,229.5 454.5,229.5C 454.5,230.5 454.5,231.5 454.5,232.5C 458.702,232.183 462.702,232.517 466.5,233.5C 462.167,233.5 457.833,233.5 453.5,233.5C 453.5,231.833 453.5,230.167 453.5,228.5C 463.833,228.5 474.167,228.5 484.5,228.5C 484.5,230.167 484.5,231.833 484.5,233.5C 480.167,233.5 475.833,233.5 471.5,233.5 Z"/></g>
<g><path style="opacity:1" fill="#f8f8f8" d="M 140.5,232.5 C 154.789,232.4 160.623,239.4 158,253.5C 152.667,262.701 145.167,264.867 135.5,260C 127.951,252.282 127.617,244.282 134.5,236C 136.432,234.541 138.432,233.375 140.5,232.5 Z"/></g>
<g><path style="opacity:1" fill="#fafafa" d="M 172.5,233.5 C 176.846,233.334 181.179,233.501 185.5,234C 191.353,237.451 192.019,241.785 187.5,247C 182.599,248.325 177.599,248.825 172.5,248.5C 172.5,243.5 172.5,238.5 172.5,233.5 Z"/></g>
<g><path style="opacity:1" fill="#fdfdfd" d="M 204.5,233.5 C 208.514,233.334 212.514,233.501 216.5,234C 221.224,236.435 222.724,240.269 221,245.5C 219.786,247.049 218.286,248.215 216.5,249C 212.514,249.499 208.514,249.666 204.5,249.5C 204.5,244.167 204.5,238.833 204.5,233.5 Z"/></g>
<g><path style="opacity:1" fill="#f9f9f9" d="M 290.5,232.5 C 304.014,231.846 310.181,238.179 309,251.5C 304.949,261.414 297.783,264.581 287.5,261C 284.272,259.437 282.105,256.937 281,253.5C 278.27,243.637 281.436,236.637 290.5,232.5 Z"/></g>
<g><path style="opacity:1" fill="#919191" d="M 395.5,244.5 C 401.167,244.5 406.833,244.5 412.5,244.5C 412.784,246.415 412.451,248.081 411.5,249.5C 411.5,248.167 411.5,246.833 411.5,245.5C 405.974,245.821 400.64,245.488 395.5,244.5 Z"/></g>
<g><path style="opacity:1" fill="#080808" d="M -0.5,231.5 C -0.5,231.167 -0.5,230.833 -0.5,230.5C 3.16667,230.5 6.83333,230.5 10.5,230.5C 10.1774,226.774 10.5108,223.107 11.5,219.5C 17.6027,222.968 23.7694,226.301 30,229.5C 36.2306,226.301 42.3973,222.968 48.5,219.5C 49.4892,223.107 49.8226,226.774 49.5,230.5C 53.226,230.177 56.8927,230.511 60.5,231.5C 56.7804,237.105 53.447,242.938 50.5,249C 53.6989,255.231 57.0322,261.397 60.5,267.5C 56.8927,268.489 53.226,268.823 49.5,268.5C 49.8226,272.226 49.4892,275.893 48.5,279.5C 42.5,276.167 36.5,272.833 30.5,269.5C 24.5,272.833 18.5,276.167 12.5,279.5C 11.5108,275.893 11.1774,272.226 11.5,268.5C 7.77395,268.823 4.10728,268.489 0.5,267.5C 3.71382,261.569 7.04715,255.736 10.5,250C 7.44334,243.373 3.77667,237.206 -0.5,231.5 Z"/></g>
<g><path style="opacity:1" fill="#f5f5f5" d="M 12.5,231.5 C 18.4034,234.702 24.2367,238.035 30,241.5C 36.2504,238.127 42.417,234.96 48.5,232C 45.1599,237.683 41.8266,243.349 38.5,249C 41.3657,254.564 44.3657,260.064 47.5,265.5C 47.1667,265.833 46.8333,266.167 46.5,266.5C 41.1667,263.5 35.8333,260.5 30.5,257.5C 24.5853,260.707 18.7519,264.04 13,267.5C 15.8273,261.521 18.994,255.521 22.5,249.5C 18.7094,243.721 15.3761,237.721 12.5,231.5 Z"/></g>
<g><path style="opacity:1" fill="#939393" d="M 395.5,261.5 C 401.833,261.5 408.167,261.5 414.5,261.5C 414.784,263.415 414.451,265.081 413.5,266.5C 413.5,265.167 413.5,263.833 413.5,262.5C 407.31,262.823 401.31,262.49 395.5,261.5 Z"/></g>
</svg>
